<svg width="165" height="40" viewBox="0 0 165 40" fill="none" xmlns="http://www.w3.org/2000/svg">
  <!-- Custom Geometric "omium" Logotype -->
  <!-- Bold weight (stroke-width 5.5) -->
  
  <g transform="translate(5, 5)" stroke="#FFFFFF" stroke-width="5.5" stroke-linecap="round" stroke-linejoin="round" fill="none">
    
    <!-- o -->
    <circle cx="12" cy="18" r="9" />
    
    <!-- m -->
    <!-- vertical left -->
    <path d="M30 30 V12" />
    <!-- arch 1 -->
    <path d="M30 18 Q30 9 39 9 Q48 9 48 18 V30" />
    <!-- arch 2 -->
    <path d="M48 18 Q48 9 57 9 Q66 9 66 18 V30" />
    
    <!-- i -->
    <path d="M78 30 V12" />
    <circle cx="78" cy="4" r="0.5" fill="#FFFFFF" stroke="none" /> <!-- dot -->
    <!-- Fix dot stroke -->
    <path d="M78 4.5 V4.5" stroke-width="6.5" stroke-linecap="round" />

    <!-- u -->
    <path d="M90 12 V21 Q90 30 99 30 Q108 30 108 21 V12" />
    
    <!-- m -->
    <path d="M120 30 V12" />
    <path d="M120 18 Q120 9 129 9 Q138 9 138 18 V30" />
    <path d="M138 18 Q138 9 147 9 Q156 9 156 18 V30" />
    
  </g>
</svg>
